<svg xmlns="http://www.w3.org/2000/svg" xmlns:xlink="http://www.w3.org/1999/xlink" x="0" y="0" width="662" height="224.68333435058594" style="
        width:662px;
        height:224.68333435058594px;
        background: transparent;
        fill: none;
">
        <svg xmlns="http://www.w3.org/2000/svg"/>
        
        <svg xmlns="http://www.w3.org/2000/svg" class="role-diagram-draw-area"><g class="shapes-region" style="stroke: black; fill: none;"><g class="composite-shape"><path class="real" d=" M21.2,25.32 C21.2,22.33 23.63,19.9 26.62,19.9 L101.58,19.9 C104.57,19.9 107,22.33 107,25.32 L107,41.58 C107,44.57 104.57,47 101.58,47 L26.62,47 C23.63,47 21.2,44.57 21.2,41.58 Z" style="stroke-width: 1px; stroke: rgb(0, 0, 0); fill: rgb(33, 37, 211); fill-opacity: 0.19;"/></g><g class="composite-shape"><path class="real" d=" M129.55,45 C129.55,41.96 132.01,39.5 135.05,39.5 L190.8,39.5 C193.84,39.5 196.3,41.96 196.3,45 L196.3,61.5 C196.3,64.54 193.84,67 190.8,67 L135.05,67 C132.01,67 129.55,64.54 129.55,61.5 Z" style="stroke-width: 1px; stroke: rgb(0, 0, 0); fill: rgb(126, 211, 33); fill-opacity: 0.19;"/></g><g class="composite-shape"><path class="real" d=" M129.4,95.44 C129.4,92.57 131.72,90.25 134.59,90.25 L190.96,90.25 C193.83,90.25 196.15,92.57 196.15,95.44 L196.15,111.01 C196.15,113.88 193.83,116.2 190.96,116.2 L134.59,116.2 C131.72,116.2 129.4,113.88 129.4,111.01 Z" style="stroke-width: 1px; stroke: rgb(0, 0, 0); fill: rgb(126, 211, 33); fill-opacity: 0.19;"/></g><g class="composite-shape"><path class="real" d=" M129.85,145.48 C129.85,142.73 132.07,140.5 134.83,140.5 L191.62,140.5 C194.37,140.5 196.6,142.73 196.6,145.48 L196.6,160.42 C196.6,163.17 194.37,165.4 191.62,165.4 L134.83,165.4 C132.07,165.4 129.85,163.17 129.85,160.42 Z" style="stroke-width: 1px; stroke: rgb(0, 0, 0); fill: rgb(126, 211, 33); fill-opacity: 0.19;"/></g><g class="composite-shape"><path class="real" d=" M220,94.88 C220,92.05 222.3,89.75 225.13,89.75 L291.87,89.75 C294.7,89.75 297,92.05 297,94.88 L297,110.27 C297,113.1 294.7,115.4 291.87,115.4 L225.13,115.4 C222.3,115.4 220,113.1 220,110.27 Z" style="stroke-width: 1px; stroke: rgb(0, 0, 0); fill: rgb(95, 104, 117); fill-opacity: 0.19;"/></g><g class="arrow-line"><path class="connection real" stroke-dasharray="" d="  M113.25,33.75 C151.06,25.79 271.39,-12.71 270.62,83.93" style="stroke: rgb(0, 0, 0); stroke-width: 1px; fill: none; fill-opacity: 1;"/><g stroke="#000" transform="matrix(0.020244436247534588,-0.99979506040039,0.99979506040039,0.020244436247534588,270.6,85.40000000000003)" style="stroke: rgb(0, 0, 0); stroke-width: 1px;"><path d=" M10.93,-3.29 Q4.96,-0.45 0,0 Q4.96,0.45 10.93,3.29"/></g></g><g class="composite-shape"><path class="real" d=" M382.35,31.66 C382.35,29.06 384.46,26.95 387.06,26.95 L540.89,26.95 C543.49,26.95 545.6,29.06 545.6,31.66 L545.6,45.79 C545.6,48.39 543.49,50.5 540.89,50.5 L387.06,50.5 C384.46,50.5 382.35,48.39 382.35,45.79 Z" style="stroke-width: 1px; stroke: rgb(0, 0, 0); fill: rgb(226, 127, 74); fill-opacity: 0.14;"/></g><g class="composite-shape"><path class="real" d=" M523.25,88.62 C523.25,85.71 525.61,83.35 528.52,83.35 L607.13,83.35 C610.04,83.35 612.4,85.71 612.4,88.62 L612.4,104.43 C612.4,107.34 610.04,109.7 607.13,109.7 L528.52,109.7 C525.61,109.7 523.25,107.34 523.25,104.43 Z" style="stroke-width: 1px; stroke: rgb(0, 0, 0); fill: rgb(184, 233, 134); fill-opacity: 0.29; stroke-dasharray: 6px, 6px;"/></g><g class="composite-shape"><path class="real" d=" M413.9,151.82 C413.9,148.63 416.48,146.05 419.67,146.05 L595.63,146.05 C598.82,146.05 601.4,148.63 601.4,151.82 L601.4,169.13 C601.4,172.32 598.82,174.9 595.63,174.9 L419.67,174.9 C416.48,174.9 413.9,172.32 413.9,169.13 Z" style="stroke-width: 1px; stroke: rgb(0, 0, 0); fill: rgb(184, 233, 134); fill-opacity: 0.29;"/></g><g class="composite-shape"><path class="real" d=" M339.6,44 C339.6,25.22 354.82,10 373.6,10 L614.4,10 C633.18,10 648.4,25.22 648.4,44 L648.4,146 C648.4,164.78 633.18,180 614.4,180 L373.6,180 C354.82,180 339.6,164.78 339.6,146 Z" style="stroke-width: 1px; stroke: rgb(0, 0, 0); fill: none; fill-opacity: 1;"/></g><g class="composite-shape"><path class="real" d=" M11.5,44.35 C11.5,25.52 26.77,10.25 45.6,10.25 L287.15,10.25 C305.98,10.25 321.25,25.52 321.25,44.35 L321.25,146.65 C321.25,165.48 305.98,180.75 287.15,180.75 L45.6,180.75 C26.77,180.75 11.5,165.48 11.5,146.65 Z" style="stroke-width: 1px; stroke: rgb(0, 0, 0); fill: none; fill-opacity: 1;"/></g><g class="arrow-line"><path class="connection real" stroke-dasharray="" d="  M64.6,51.4 C60.72,91.25 85.01,134.38 124.3,106.13" style="stroke: rgb(0, 0, 0); stroke-width: 1px; fill: none; fill-opacity: 1;"/><g stroke="#000" transform="matrix(-0.7999989281485084,0.6000014291326627,-0.6000014291326627,-0.7999989281485084,125.5,105.25)" style="stroke: rgb(0, 0, 0); stroke-width: 1px;"><path d=" M10.93,-3.29 Q4.96,-0.45 0,0 Q4.96,0.45 10.93,3.29"/></g></g><g class="arrow-line"><path class="connection real" stroke-dasharray="" d="  M199.25,101 C214.35,99.76 253.29,23.78 251.08,83.55" style="stroke: rgb(0, 0, 0); stroke-width: 1px; fill: none; fill-opacity: 1;"/><g stroke="#000" transform="matrix(0.048675444495616754,-0.9988146480219211,0.9988146480219211,0.048675444495616754,251,85.4)" style="stroke: rgb(0, 0, 0); stroke-width: 1px;"><path d=" M10.93,-3.29 Q4.96,-0.45 0,0 Q4.96,0.45 10.93,3.29"/></g></g><g class="composite-shape"><path class="real" d=" M402.85,88.74 C402.85,85.96 405.11,83.7 407.89,83.7 L494.96,83.7 C497.74,83.7 500,85.96 500,88.74 L500,103.86 C500,106.64 497.74,108.9 494.96,108.9 L407.89,108.9 C405.11,108.9 402.85,106.64 402.85,103.86 Z" style="stroke-width: 1px; stroke: rgb(0, 0, 0); fill: rgb(184, 233, 134); fill-opacity: 0.29;"/></g><g class="arrow-line"><path class="connection real" stroke-dasharray="" d="  M449.2,54.5 L449.2,77.7" style="stroke: rgb(0, 0, 0); stroke-width: 1px; fill: none; fill-opacity: 1;"/><g stroke="#000" transform="matrix(-1.8369701987210297e-16,-1,1,-1.8369701987210297e-16,449.20000000000005,79.69999999999999)" style="stroke: rgb(0, 0, 0); stroke-width: 1px;"><path d=" M10.93,-3.29 Q4.96,-0.45 0,0 Q4.96,0.45 10.93,3.29"/></g></g><g class="arrow-line"><path class="connection real" stroke-dasharray="" d="  M449.5,112.34 L449.22,141.3" style="stroke: rgb(0, 0, 0); stroke-width: 1px; fill: none; fill-opacity: 1;"/><g stroke="#000" transform="matrix(0.009773688199249128,-0.9999522363688097,0.9999522363688097,0.009773688199249128,449.19999999999993,143.3)" style="stroke: rgb(0, 0, 0); stroke-width: 1px;"><path d=" M10.93,-3.29 Q4.96,-0.45 0,0 Q4.96,0.45 10.93,3.29"/></g></g><g class="arrow-line"><path class="connection real" stroke-dasharray="" d="  M569.2,116.1 L569.2,141.7" style="stroke: rgb(0, 0, 0); stroke-width: 1px; fill: none; fill-opacity: 1;"/><g stroke="#000" transform="matrix(-1.8369701987210297e-16,-1,1,-1.8369701987210297e-16,569.2,143.70000000000005)" style="stroke: rgb(0, 0, 0); stroke-width: 1px;"><path d=" M10.93,-3.29 Q4.96,-0.45 0,0 Q4.96,0.45 10.93,3.29"/></g></g><g class="arrow-line"><path class="connection real" stroke-dasharray="" d="  M299,104.5 C373.13,111.96 284.89,35.77 380.54,38.45" style="stroke: rgb(0, 0, 0); stroke-width: 1px; fill: none; fill-opacity: 1;"/><g stroke="#000" transform="matrix(-0.9993599909269292,-0.03577161632534946,0.03577161632534946,-0.9993599909269292,382.00000000000006,38.49999999999999)" style="stroke: rgb(0, 0, 0); stroke-width: 1px;"><path d=" M10.93,-3.29 Q4.96,-0.45 0,0 Q4.96,0.45 10.93,3.29"/></g></g><g/></g><g/><g/><g/></svg>
        <svg xmlns="http://www.w3.org/2000/svg" xmlns:xlink="http://www.w3.org/1999/xlink" width="660" height="222.68333435058594" style="width:660px;height:222.68333435058594px;font-family:Asana-Math, Asana;background:transparent;"><g><g><g><text x="32.33331298828125" y="25.166656494140625" style="white-space:pre;stroke:none;fill:rgb(0,0,0);fill-opacity:1;font-size:15px;font-family:Arial, Helvetica, sans-serif;font-weight:400;font-style:normal;dominant-baseline:text-before-edge;text-decoration:rgb(0, 0, 0);">Instruction</text></g></g></g><g><g><g><text x="138.04998779296875" y="42" style="white-space:pre;stroke:none;fill:rgb(0,0,0);fill-opacity:1;font-size:15px;font-family:Arial, Helvetica, sans-serif;font-weight:400;font-style:normal;dominant-baseline:text-before-edge;text-decoration:rgb(0, 0, 0);">Node 1</text></g></g></g><g><g><g><text x="140" y="145.16665649414062" style="white-space:pre;stroke:none;fill:rgb(0,0,0);fill-opacity:1;font-size:15px;font-family:Arial, Helvetica, sans-serif;font-weight:400;font-style:normal;dominant-baseline:text-before-edge;text-decoration:rgb(0, 0, 0);">Node 3</text></g></g></g><g><g><g><text x="139" y="95.83334350585938" style="white-space:pre;stroke:none;fill:rgb(0,0,0);fill-opacity:1;font-size:15px;font-family:Arial, Helvetica, sans-serif;font-weight:400;font-style:normal;dominant-baseline:text-before-edge;text-decoration:rgb(0, 0, 0);">Node 2</text></g></g></g><g><g><g><text x="246.13330078125" y="94.25" style="white-space:pre;stroke:none;fill:rgb(0,0,0);fill-opacity:1;font-size:15px;font-family:Arial, Helvetica, sans-serif;font-weight:400;font-style:normal;dominant-baseline:text-before-edge;text-decoration:rgb(0, 0, 0);">LLM</text></g></g></g><g><g><g><text x="394.01666259765625" y="32.19999694824219" style="white-space:pre;stroke:none;fill:rgb(0,0,0);fill-opacity:1;font-size:15px;font-family:Arial, Helvetica, sans-serif;font-weight:400;font-style:normal;dominant-baseline:text-before-edge;text-decoration:rgb(0, 0, 0);">New Code for Node 2</text></g></g></g><g><g><g><text x="531.5167236328125" y="88.44999694824219" style="white-space:pre;stroke:none;fill:rgb(0,0,0);fill-opacity:1;font-size:15px;font-family:Arial, Helvetica, sans-serif;font-weight:400;font-style:normal;dominant-baseline:text-before-edge;text-decoration:rgb(0, 0, 0);">Old Node 2</text></g></g></g><g><g><g><text x="423.183349609375" y="152.61666870117188" style="white-space:pre;stroke:none;fill:rgb(0,0,0);fill-opacity:1;font-size:15px;font-family:Arial, Helvetica, sans-serif;font-weight:400;font-style:normal;dominant-baseline:text-before-edge;text-decoration:rgb(0, 0, 0);">New Node 2 with old state</text></g></g></g><g><g><g><text x="59.25" y="118.75" style="white-space:pre;stroke:none;fill:rgb(0,0,0);fill-opacity:1;font-size:15px;font-family:Arial, Helvetica, sans-serif;font-weight:400;font-style:normal;dominant-baseline:text-before-edge;text-decoration:rgb(0, 0, 0);">Retrieval</text></g></g></g><g><g><g><text x="223.75" y="123.75" style="white-space:pre;stroke:none;fill:rgb(0,0,0);fill-opacity:1;font-size:15px;font-family:Arial, Helvetica, sans-serif;font-weight:400;font-style:normal;dominant-baseline:text-before-edge;text-decoration:rgb(0, 0, 0);">Generation</text></g></g></g><g><g><g><text x="147.75" y="185.25" style="white-space:pre;stroke:none;fill:rgb(0,0,0);fill-opacity:1;font-size:15px;font-family:Arial, Helvetica, sans-serif;font-weight:400;font-style:normal;dominant-baseline:text-before-edge;text-decoration:rgb(0, 0, 0);">RAG</text></g></g></g><g><g><g><text x="447.5999755859375" y="190.45001220703125" style="white-space:pre;stroke:none;fill:rgb(0,0,0);fill-opacity:1;font-size:15px;font-family:Arial, Helvetica, sans-serif;font-weight:400;font-style:normal;dominant-baseline:text-before-edge;text-decoration:rgb(0, 0, 0);">Hot-Reloading</text></g></g></g><g><g><g><text x="411.51666259765625" y="88.19999694824219" style="white-space:pre;stroke:none;fill:rgb(0,0,0);fill-opacity:1;font-size:15px;font-family:Arial, Helvetica, sans-serif;font-weight:400;font-style:normal;dominant-baseline:text-before-edge;text-decoration:rgb(0, 0, 0);">New Node 2</text></g></g></g><g><g><g><text x="460.5" y="58.25" style="white-space:pre;stroke:none;fill:rgb(0,0,0);fill-opacity:1;font-size:15px;font-family:Arial, Helvetica, sans-serif;font-weight:400;font-style:normal;dominant-baseline:text-before-edge;text-decoration:rgb(0, 0, 0);">Spawn</text></g></g></g><g><g><g><text x="472.20001220703125" y="117.80000305175781" style="white-space:pre;stroke:none;fill:rgb(0,0,0);fill-opacity:1;font-size:15px;font-family:Arial, Helvetica, sans-serif;font-weight:400;font-style:normal;dominant-baseline:text-before-edge;text-decoration:rgb(0, 0, 0);">Copy State</text></g></g></g></svg>
</svg>
